<svg width="15" height="6" viewBox="0 0 15 6" fill="none" xmlns="http://www.w3.org/2000/svg">
<path d="M0.528409 0.636364H1.15909L2.64205 4.25852H2.69318L4.17614 0.636364H4.80682V5H4.3125V1.68466H4.26989L2.90625 5H2.42898L1.06534 1.68466H1.02273V5H0.528409V0.636364ZM5.8663 0.636364H6.49698L7.97994 4.25852H8.03107L9.51403 0.636364H10.1447V5H9.65039V1.68466H9.60778L8.24414 5H7.76687L6.40323 1.68466H6.36062V5H5.8663V0.636364ZM14.7156 2H14.1871C14.1559 1.84801 14.1012 1.71449 14.0231 1.59943C13.9464 1.48438 13.8526 1.38778 13.7418 1.30966C13.6325 1.23011 13.511 1.17045 13.3775 1.13068C13.244 1.09091 13.1048 1.07102 12.9599 1.07102C12.6957 1.07102 12.4563 1.13778 12.2418 1.27131C12.0288 1.40483 11.859 1.60156 11.7326 1.86151C11.6076 2.12145 11.5451 2.44034 11.5451 2.81818C11.5451 3.19602 11.6076 3.51491 11.7326 3.77486C11.859 4.0348 12.0288 4.23153 12.2418 4.36506C12.4563 4.49858 12.6957 4.56534 12.9599 4.56534C13.1048 4.56534 13.244 4.54545 13.3775 4.50568C13.511 4.46591 13.6325 4.40696 13.7418 4.32884C13.8526 4.24929 13.9464 4.15199 14.0231 4.03693C14.1012 3.92045 14.1559 3.78693 14.1871 3.63636H14.7156C14.6758 3.85937 14.6033 4.05895 14.4982 4.23509C14.3931 4.41122 14.2624 4.56108 14.1062 4.68466C13.9499 4.80682 13.7745 4.89986 13.5799 4.96378C13.3867 5.0277 13.18 5.05966 12.9599 5.05966C12.5877 5.05966 12.2567 4.96875 11.967 4.78693C11.6772 4.60511 11.4492 4.34659 11.283 4.01136C11.1168 3.67614 11.0337 3.27841 11.0337 2.81818C11.0337 2.35795 11.1168 1.96023 11.283 1.625C11.4492 1.28977 11.6772 1.03125 11.967 0.849432C12.2567 0.667614 12.5877 0.576704 12.9599 0.576704C13.18 0.576704 13.3867 0.608665 13.5799 0.672585C13.7745 0.736506 13.9499 0.830256 14.1062 0.953835C14.2624 1.07599 14.3931 1.22514 14.4982 1.40128C14.6033 1.57599 14.6758 1.77557 14.7156 2Z" fill="#E12F35"/>
</svg>
